<svg width="32" height="30" viewBox="0 0 32 30" fill="none" xmlns="http://www.w3.org/2000/svg">
  <path d="M18.3859 21.7884C18.2497 21.4475 18.0455 21.2429 17.7731 21.1747L13.1426 19.1975C12.8021 19.0611 13.0064 19.1975 12.734 19.402C12.3935 19.6066 11.3721 20.8338 11.3721 20.7657V28.9475C11.3721 29.3566 11.7125 29.7656 12.1211 29.902C12.2573 29.902 12.3254 29.902 12.4616 29.902C12.8021 29.902 13.0745 29.7656 13.2788 29.4929L18.3178 22.6747C18.454 22.402 18.454 22.1293 18.3859 21.7884Z" fill="#1B8FDD"/>
  <path d="M30.9836 0.0384697C30.6431 -0.166076 30.2346 -0.166076 29.9622 -0.097894L0.544767 15.3112C0.204288 15.5157 0 15.9248 0 16.3339C0 16.743 0.340479 17.0839 0.612863 17.1521L8.85246 19.9476L27.2383 4.53847L11.4401 20.7657L26.4893 25.9476C26.6255 25.9476 26.6936 26.0839 26.8298 26.0839C27.034 26.0839 27.1702 26.0839 27.3745 25.9476C27.5788 25.8112 27.7831 25.5385 27.7831 25.1976L31.3922 0.993015C31.3922 0.652106 31.256 0.243015 30.9836 0.0384697Z" fill="#4EB9F4"/>
</svg>