<svg class="w-[239px] text-title" xmlns="http://www.w3.org/2000/svg" viewBox="0 0 270 30"><path fill="currentColor" d="M46.918 9.68h4.63v.342a7.688 7.688 0 013.065-.614c2.179 0 4.017.818 5.447 2.25 1.43-1.363 3.27-2.25 5.448-2.25 4.222 0 7.763 3.41 7.763 7.773v7.159h-4.63v-7.227a3.053 3.053 0 00-3.065-3.068c-1.77 0-3.064 1.363-3.064 3.068v7.159h-4.767v-7.16a3.053 3.053 0 00-3.064-3.067c-1.634 0-3.064 1.363-3.064 3.068v7.159h-4.63V9.68h-.069zM86.686 24.137c-1.022.41-2.043.75-3.2.75-4.223 0-7.764-3.409-7.764-7.773 0-4.227 3.405-7.772 7.764-7.772 1.157 0 2.178.204 3.2.613v-.204h4.63v14.454l-4.63-.068zm-6.333-7.023a3.053 3.053 0 003.064 3.069c1.77 0 3.065-1.364 3.065-3.069a3.053 3.053 0 00-3.065-3.068c-1.566 0-3.064 1.364-3.064 3.069zM93.496 4.295c0-1.977 1.566-3.545 3.609-3.545a3.52 3.52 0 013.541 3.545 3.52 3.52 0 01-3.541 3.546c-1.975 0-3.61-1.568-3.61-3.546zm5.856 19.841h-4.63V9.682h4.63v14.454zM108 24.136h-4.631V4.295H108v19.84zM121.211 24.136a7.692 7.692 0 01-3.065.614c-4.222 0-7.763-3.41-7.763-7.773 0-4.227 3.541-7.773 7.763-7.773 1.158 0 2.179.341 3.065.614V4.363h4.63v19.841l-4.63-.068zm-6.197-7.09c0 1.772 1.362 3.067 3.064 3.067a3.053 3.053 0 003.064-3.068c0-1.773-1.361-3.068-3.064-3.068-1.702 0-3.064 1.295-3.064 3.068zM128.837 9.683h4.631v.204a7.687 7.687 0 013.064-.614c1.975 0 3.814.75 5.244 2.046l-3.201 3.409a3.21 3.21 0 00-2.179-.818c-1.77 0-3.064 1.363-3.064 3.068v7.16h-4.631V9.682h.136zM148.858 9.205c4.221 0 7.762 3.546 7.762 7.773s-3.404 7.772-7.762 7.772c-4.222 0-7.763-3.409-7.763-7.772.068-4.364 3.541-7.773 7.763-7.773zm0 4.636c-1.771 0-3.065 1.364-3.065 3.069 0 1.772 1.362 3.068 3.065 3.068 1.77 0 3.064-1.432 3.064-3.068.068-1.637-1.294-3.069-3.064-3.069zM158.663 9.478h4.631v.34a7.687 7.687 0 013.064-.613c4.222 0 7.763 3.546 7.763 7.773s-3.405 7.772-7.763 7.772c-1.157 0-2.179-.204-3.064-.613v5.59h-4.631V9.478zm4.563 7.363a3.053 3.053 0 003.064 3.069c1.634 0 3.064-1.432 3.064-3.069 0-1.636-1.43-3.068-3.064-3.068-1.634-.068-3.064 1.432-3.064 3.068zM176.096 9.478h4.63v.34a7.692 7.692 0 013.065-.613c4.222 0 7.763 3.546 7.763 7.773s-3.405 7.772-7.763 7.772c-1.158 0-2.179-.204-3.065-.613v5.59h-4.63V9.478zm4.562 7.363a3.053 3.053 0 003.065 3.069c1.634 0 3.064-1.432 3.064-3.069 0-1.636-1.43-3.068-3.064-3.068-1.635-.068-3.065 1.432-3.065 3.068zM203.879 24.137c-.953.409-1.975.613-3.201.613-4.221 0-7.762-3.409-7.762-7.772 0-4.228 3.404-7.773 7.762-7.773 1.158 0 2.18.341 3.201.614v-.137h4.63v14.455h-4.63zm-6.265-7.023a3.053 3.053 0 003.064 3.068c1.771 0 3.065-1.363 3.065-3.068a3.053 3.053 0 00-3.065-3.068c-1.634 0-3.064 1.364-3.064 3.068z"></path><path fill="#1b8fdd" d="M18.386 22.788c-.136-.34-.34-.545-.613-.613l-4.63-1.977c-.341-.137-.137 0-.41.204-.34.205-1.361 1.432-1.361 1.364v8.182c0 .409.34.818.749.954h.34a.97.97 0 00.818-.41l5.039-6.817c.136-.273.136-.546.068-.887z"></path><path fill="#4eb9f4" d="M30.984 1.038c-.34-.204-.75-.204-1.022-.136L.545 16.312c-.34.204-.545.613-.545 1.022 0 .409.34.75.613.818l8.24 2.796 18.385-15.41L11.44 21.766l15.05 5.182c.136 0 .204.136.34.136.204 0 .34 0 .545-.136a.925.925 0 00.408-.75l3.61-24.205c0-.34-.137-.75-.41-.955z"></path></svg>